<?xml version="1.0" encoding="UTF-8" standalone="no"?>
<!DOCTYPE svg PUBLIC "-//W3C//DTD SVG 1.1//EN" "http://www.w3.org/Graphics/SVG/1.1/DTD/svg11.dtd">
<svg id="navSetting" width="100%" height="100%" viewBox="0 0 500 500" version="1.1" xmlns="http://www.w3.org/2000/svg" xmlns:xlink="http://www.w3.org/1999/xlink" xml:space="preserve" xmlns:serif="http://www.serif.com/" style="fill-rule:evenodd;clip-rule:evenodd;stroke-linejoin:round;stroke-miterlimit:2;">
    <g transform="matrix(1,0,0,1,-1785,-1208)">
        <rect id="Icon-Settings" x="1785" y="1208" width="500" height="500" style="fill:none;"/>
        <g id="Icon-Settings1" serif:id="Icon-Settings">
            <path d="M2071.01,1222.71C2071.49,1219.56 2070.66,1216.34 2068.72,1213.82C2066.78,1211.29 2063.89,1209.66 2060.73,1209.31C2043.62,1207.56 2026.38,1207.56 2009.28,1209.33C2006.12,1209.68 2003.23,1211.31 2001.3,1213.83C1999.36,1216.35 1998.54,1219.56 1999.02,1222.7C2000.95,1235.48 2003.79,1254.02 2003.79,1254.02C1988.82,1256.31 1974.15,1260.24 1960.04,1265.74C1960.04,1265.74 1953.23,1248.27 1948.53,1236.23C1947.38,1233.26 1945.06,1230.89 1942.11,1229.67C1939.17,1228.45 1935.85,1228.48 1932.93,1229.76C1917.25,1236.8 1902.32,1245.42 1888.39,1255.51C1885.82,1257.39 1884.14,1260.24 1883.73,1263.39C1883.31,1266.55 1884.2,1269.74 1886.19,1272.22C1894.25,1282.32 1905.98,1296.95 1905.98,1296.95C1894.16,1306.42 1883.42,1317.16 1873.95,1328.98C1873.95,1328.98 1859.32,1317.25 1849.23,1309.17C1846.74,1307.18 1843.55,1306.29 1840.39,1306.7C1837.23,1307.12 1834.38,1308.81 1832.49,1311.37C1822.42,1325.32 1813.8,1340.25 1806.78,1355.94C1805.51,1358.86 1805.47,1362.16 1806.69,1365.1C1807.91,1368.04 1810.27,1370.36 1813.24,1371.51C1825.27,1376.23 1842.74,1383.04 1842.74,1383.04C1837.24,1397.15 1833.31,1411.82 1831.02,1426.79C1831.02,1426.79 1812.48,1423.95 1799.71,1422C1796.56,1421.51 1793.34,1422.34 1790.82,1424.28C1788.29,1426.22 1786.66,1429.11 1786.31,1432.27C1784.56,1449.38 1784.56,1466.62 1786.33,1483.72C1786.68,1486.88 1788.31,1489.77 1790.83,1491.7C1793.35,1493.64 1796.56,1494.46 1799.7,1493.98C1812.48,1492.05 1831.02,1489.21 1831.02,1489.21C1833.31,1504.18 1837.24,1518.85 1842.74,1532.96C1842.74,1532.96 1825.27,1539.77 1813.23,1544.47C1810.26,1545.62 1807.89,1547.94 1806.67,1550.89C1805.45,1553.83 1805.48,1557.15 1806.76,1560.07C1813.8,1575.75 1822.42,1590.68 1832.51,1604.61C1834.39,1607.18 1837.24,1608.86 1840.39,1609.27C1843.55,1609.69 1846.74,1608.8 1849.22,1606.81C1859.32,1598.75 1873.95,1587.02 1873.95,1587.02C1883.42,1598.84 1894.16,1609.58 1905.98,1619.05C1905.98,1619.05 1894.25,1633.68 1886.17,1643.77C1884.18,1646.26 1883.29,1649.45 1883.7,1652.61C1884.12,1655.77 1885.81,1658.62 1888.37,1660.51C1902.32,1670.58 1917.25,1679.2 1932.94,1686.22C1935.86,1687.49 1939.16,1687.53 1942.1,1686.31C1945.04,1685.09 1947.36,1682.73 1948.51,1679.77C1953.23,1667.74 1960.04,1650.26 1960.04,1650.26C1974.15,1655.76 1988.82,1659.69 2003.79,1661.98C2003.79,1661.98 2000.95,1680.52 1999,1693.29C1998.51,1696.44 1999.34,1699.66 2001.28,1702.18C2003.22,1704.72 2006.11,1706.34 2009.27,1706.69C2026.38,1708.44 2043.62,1708.44 2060.72,1706.67C2063.89,1706.32 2066.77,1704.69 2068.7,1702.17C2070.64,1699.65 2071.46,1696.44 2070.98,1693.3C2069.05,1680.52 2066.21,1661.98 2066.21,1661.98C2081.18,1659.69 2095.85,1655.76 2109.96,1650.26C2109.96,1650.26 2116.77,1667.74 2121.47,1679.77C2122.62,1682.74 2124.94,1685.11 2127.89,1686.33C2130.83,1687.55 2134.15,1687.52 2137.07,1686.24C2152.75,1679.2 2167.68,1670.58 2181.61,1660.49C2184.18,1658.61 2185.86,1655.76 2186.27,1652.61C2186.69,1649.45 2185.8,1646.27 2183.81,1643.78C2175.75,1633.68 2164.02,1619.05 2164.02,1619.05C2175.84,1609.58 2186.58,1598.84 2196.05,1587.02C2196.05,1587.02 2210.68,1598.75 2220.77,1606.83C2223.26,1608.82 2226.45,1609.71 2229.61,1609.3C2232.77,1608.88 2235.62,1607.19 2237.51,1604.63C2247.58,1590.68 2256.2,1575.75 2263.22,1560.06C2264.49,1557.14 2264.53,1553.84 2263.31,1550.9C2262.09,1547.96 2259.73,1545.64 2256.76,1544.49C2244.74,1539.77 2227.26,1532.96 2227.26,1532.96C2232.76,1518.85 2236.69,1504.18 2238.98,1489.21C2238.98,1489.21 2257.52,1492.05 2270.29,1494.01C2273.45,1494.49 2276.66,1493.66 2279.18,1491.72C2281.72,1489.78 2283.34,1486.89 2283.69,1483.73C2285.44,1466.62 2285.44,1449.38 2283.67,1432.28C2283.32,1429.12 2281.7,1426.23 2279.17,1424.3C2276.65,1422.36 2273.44,1421.54 2270.3,1422.02C2257.52,1423.95 2238.98,1426.79 2238.98,1426.79C2236.69,1411.82 2232.76,1397.15 2227.26,1383.04C2227.26,1383.04 2244.74,1376.23 2256.77,1371.53C2259.74,1370.38 2262.11,1368.06 2263.33,1365.11C2264.55,1362.17 2264.52,1358.85 2263.24,1355.93C2256.2,1340.25 2247.58,1325.32 2237.49,1311.39C2235.61,1308.82 2232.76,1307.14 2229.61,1306.73C2226.45,1306.31 2223.26,1307.2 2220.78,1309.19C2210.68,1317.25 2196.05,1328.98 2196.05,1328.98C2186.58,1317.16 2175.84,1306.42 2164.02,1296.95C2164.02,1296.95 2175.75,1282.32 2183.83,1272.23C2185.82,1269.74 2186.71,1266.55 2186.3,1263.39C2185.88,1260.23 2184.2,1257.38 2181.63,1255.49C2167.68,1245.42 2152.75,1236.8 2137.06,1229.78C2134.14,1228.51 2130.84,1228.47 2127.9,1229.69C2124.96,1230.91 2122.64,1233.27 2121.49,1236.24C2116.77,1248.27 2109.96,1265.74 2109.96,1265.74C2095.85,1260.24 2081.18,1256.31 2066.21,1254.02C2066.21,1254.02 2069.05,1235.48 2071.01,1222.71ZM2035,1370.74C2083.16,1370.74 2122.26,1409.84 2122.26,1458C2122.26,1506.16 2083.16,1545.26 2035,1545.26C1986.84,1545.26 1947.74,1506.16 1947.74,1458C1947.74,1409.84 1986.84,1370.74 2035,1370.74ZM2035,1390.29C2072.37,1390.29 2102.71,1420.63 2102.71,1458C2102.71,1495.37 2072.37,1525.71 2035,1525.71C1997.63,1525.71 1967.29,1495.37 1967.29,1458C1967.29,1420.63 1997.63,1390.29 2035,1390.29Z" />
        </g>
    </g>
</svg>
